<?xml version="1.0" encoding="UTF-8"?>
<svg width="392px" height="392px" viewBox="0 0 392 392" version="1.1" xmlns="http://www.w3.org/2000/svg" xmlns:xlink="http://www.w3.org/1999/xlink">
    <!-- Generator: Sketch 54.1 (76490) - https://sketchapp.com -->
    <title>research</title>
    <desc>Created with Sketch.</desc>
    <g id="Page-1" stroke="none" stroke-width="1" fill="none" fill-rule="evenodd">
        <g id="research" fill-rule="nonzero">
            <path d="M324.398438,380.398438 L200,256 L256,200 L380.398438,324.398438 C387.824219,331.824219 392,341.894531 392,352.398438 C392,374.273438 374.273438,392 352.398438,392 C341.894531,392 331.832031,387.832031 324.398438,380.398438 Z" id="Path" fill="#5789D6"></path>
            <path d="M352.398438,392 C359.199219,392 365.511719,390.128906 371.105469,387.105469 C374.128906,381.511719 376,375.207031 376,368.398438 C376,357.894531 371.832031,347.824219 364.398438,340.398438 L240,216 L200,256 L324.398438,380.398438 C331.832031,387.832031 341.894531,392 352.398438,392 L352.398438,392 Z" id="Path" fill="#699CE6"></path>
            <polyline id="Path" fill="#BC8F6F" points="192 216 216 240 240 216 216 192"></polyline>
            <polygon id="Path" fill="#5789D6" points="344 344 360 344 360 360 344 360"></polygon>
            <path d="M240,120 C240,186.273438 186.273438,240 120,240 C53.726562,240 0,186.273438 0,120 C0,53.726562 53.726562,0 120,0 C186.273438,0 240,53.726562 240,120 Z" id="Path" fill="#5B6673"></path>
            <path d="M208,120 C208,168.601562 168.601562,208 120,208 C71.398438,208 32,168.601562 32,120 C32,71.398438 71.398438,32 120,32 C168.601562,32 208,71.398438 208,120 Z" id="Path" fill="#94CCE7"></path>
            <path d="M208,120 C208,168.601562 168.601562,208 120,208 C71.398438,208 32,168.601562 32,120 C32,71.398438 71.398438,32 120,32 C168.601562,32 208,71.398438 208,120 Z" id="Path" fill="#94CCE7"></path>
        </g>
    </g>
</svg>