<svg width="512" height="512" xmlns="http://www.w3.org/2000/svg" xmlns:xlink="http://www.w3.org/1999/xlink"><defs><path d="M255.998 511.996c141.384 0 255.998-114.614 255.998-255.998 0-26.7-4.088-52.446-11.671-76.645C467.75 75.412 370.68 0 255.998 0 114.614 0 0 114.614 0 255.998s114.614 255.998 255.998 255.998z" id="a"/></defs><g fill="none" fill-rule="evenodd"><mask id="b" fill="#fff"><use xlink:href="#a"/></mask><use fill="#131415" fill-rule="nonzero" xlink:href="#a"/><g mask="url(#b)" fill-rule="nonzero"><path d="M150.414 431C125.99 405.301 111 370.564 111 332.332 111 253.172 175.25 189 254.5 189S398 253.172 398 332.332c0 38.232-14.99 72.97-39.417 98.668H150.414z" fill="#B4E7FD"/><path d="M398 332.333c0 38.232-15.01 72.97-39.47 98.667h-24.61c24.46-25.697 39.473-60.435 39.473-98.667 0-75.032-57.79-136.588-131.393-142.816 4.06-.34 8.163-.517 12.308-.517C333.663 189 398 253.167 398 332.333z" fill="#72D1FB"/><path d="M372.547 429h-236.09a4.989 4.989 0 0 0-4.84 3.768L123 467h263l-8.614-34.232a4.989 4.989 0 0 0-4.84-3.768z" fill="#EA552D"/><path d="M386 467h-18.29l-8.781-34.233c-.565-2.21-2.604-3.767-4.929-3.767h18.29c2.334 0 4.364 1.556 4.929 3.767L386 467z" fill="#DA2F3C"/><path d="M401.904 465H106.097a6.259 6.259 0 0 0-6.065 4.757l-8.84 35.42c-.992 3.973 1.99 7.823 6.06 7.823h313.492c4.07 0 7.056-3.85 6.065-7.823l-8.844-35.42a6.255 6.255 0 0 0-6.061-4.757z" fill="#DA2F3C"/><path d="M410.721 513h-18.84c4.088 0 7.082-3.856 6.081-7.828l-8.874-35.415A6.282 6.282 0 0 0 383 465h18.846a6.293 6.293 0 0 1 6.091 4.757l8.872 35.415c.992 3.972-2 7.828-6.088 7.828z" fill="#AF3030"/><path d="M140.327 132.815c-4.65 7.89-14.206 21.703-27.376 28.472-2.601 1.34-2.601 5.088 0 6.425 13.168 6.769 22.724 20.585 27.37 28.475 1.427 2.417 4.928 2.417 6.355 0 4.649-7.89 14.205-21.706 27.373-28.475 2.601-1.337 2.601-5.088 0-6.425-13.165-6.769-22.721-20.582-27.37-28.472-1.424-2.42-4.925-2.42-6.352 0z" fill="#FFE046"/><path d="M174.027 168.03a46.624 46.624 0 0 0-6.366 3.97 3.708 3.708 0 0 0-1.533-1.407c-14.289-7.352-24.66-22.342-29.707-30.901a3.992 3.992 0 0 0-.421-.582 105.493 105.493 0 0 0 4.014-6.286c1.436-2.432 4.968-2.432 6.407 0 4.687 7.963 14.327 21.899 27.606 28.725 2.63 1.346 2.63 5.13 0 6.481z" fill="#FCB54C"/><path d="M413.207 191.298c-3.362 5.655-10.274 15.552-19.796 20.4-1.881.959-1.881 3.646 0 4.602 9.522 4.851 16.43 14.748 19.79 20.4 1.03 1.734 3.564 1.734 4.594 0 3.362-5.652 10.274-15.549 19.796-20.4 1.879-.956 1.879-3.643 0-4.603-9.522-4.847-16.43-14.744-19.793-20.399-1.03-1.73-3.561-1.73-4.591 0z" fill="#FFE046"/><path d="M437.557 216.498A35.302 35.302 0 0 0 432 220a2.156 2.156 0 0 0-.46-.302c-10.806-5.42-18.644-16.48-22.452-22.801-.024-.047-.057-.085-.087-.131a74.212 74.212 0 0 0 3.623-5.452c1.059-1.752 3.65-1.752 4.7 0 3.434 5.69 10.503 15.662 20.234 20.542 1.924.972 1.924 3.679 0 4.642z" fill="#FCB54C"/><path d="M312.207 275.298c-3.362 5.655-10.274 15.549-19.796 20.4-1.881.959-1.881 3.646 0 4.602 9.522 4.851 16.431 14.748 19.79 20.4 1.03 1.734 3.565 1.734 4.595 0 3.362-5.652 10.274-15.549 19.793-20.4 1.881-.956 1.881-3.643 0-4.603-9.52-4.847-16.428-14.744-19.79-20.399-1.03-1.73-3.562-1.73-4.592 0z" fill="#FFE046"/><path d="M338.557 300.5A35.009 35.009 0 0 0 333 304a2.258 2.258 0 0 0-.46-.299c-10.805-5.423-18.645-16.481-22.453-22.804-.024-.046-.054-.084-.087-.13a74.984 74.984 0 0 0 3.625-5.453c1.06-1.752 3.65-1.752 4.7 0 3.434 5.69 10.502 15.66 20.232 20.544 1.924.972 1.924 3.68 0 4.643z" fill="#FCB54C"/><path d="M94.207 200.3c-3.362 5.652-10.274 15.549-19.796 20.4-1.881.956-1.881 3.643 0 4.603 9.522 4.847 16.431 14.744 19.79 20.399 1.03 1.73 3.565 1.73 4.595 0 3.362-5.655 10.274-15.552 19.793-20.4 1.881-.959 1.881-3.646 0-4.602-9.52-4.851-16.428-14.748-19.79-20.4-1.03-1.734-3.562-1.734-4.592 0z" fill="#FFE046"/><path d="M118.557 225.498A35.234 35.234 0 0 0 113 229a2.155 2.155 0 0 0-.46-.302c-10.805-5.42-18.642-16.478-22.453-22.803-.024-.047-.054-.084-.087-.13a73.398 73.398 0 0 0 3.625-5.453c1.06-1.75 3.65-1.75 4.7 0 3.434 5.693 10.502 15.663 20.232 20.543 1.924.972 1.924 3.68 0 4.643z" fill="#FCB54C"/></g></g></svg>