<?xml version="1.0" encoding="UTF-8"?>
<svg width="49px" height="60px" viewBox="0 0 49 60" version="1.1" xmlns="http://www.w3.org/2000/svg" xmlns:xlink="http://www.w3.org/1999/xlink">
    <!-- Generator: Sketch 54.1 (76490) - https://sketchapp.com -->
    <title>heart</title>
    <desc>Created with Sketch.</desc>
    <g id="Page-1" stroke="none" stroke-width="1" fill="none" fill-rule="evenodd">
        <g id="heart" transform="translate(0.000000, -1.000000)" fill="#FFFFFF" fill-rule="nonzero">
            <path d="M47.045,27.18 L46.693,27.098 L46.939,26.835 C47.86,25.847 47.807,24.293 46.82,23.369 L46.018,22.621 C45.539,22.175 44.914,21.935 44.261,21.964 C43.606,21.986 42.999,22.262 42.552,22.74 L40.113,25.354 C38.644,23.261 36.692,21.35 34.025,19.72 C34.985,19.549 35.764,19.343 36.434,18.961 L41.94,18.961 C44.146,18.961 45.94,17.167 45.94,14.961 C45.94,12.755 44.146,10.961 41.94,10.961 L35.941,10.961 C35.22,10.618 34.358,10.446 33.178,10.433 C32.971,10.431 32.784,10.292 32.715,10.087 C32.553,9.616 32.368,9.155 32.161,8.71 L33.082,7.789 C34.642,6.229 34.642,3.692 33.082,2.133 C31.571,0.622 28.937,0.62 27.425,2.133 L26.346,3.212 C24.333,2.619 22.215,2.937 20.317,4.127 C20.156,4.23 19.919,4.167 19.787,3.993 C19.306,3.35 18.724,2.63 17.912,2.217 C16.733,1.619 14.981,2.178 14.113,2.768 C13.32,3.308 13.304,4.476 13.524,6.065 C13.604,6.644 13.794,7.237 13.976,7.811 C14.09,8.17 14.258,8.699 14.326,9.051 L14.331,9.277 C14.333,9.343 14.33,9.38 14.333,9.389 C14.311,9.42 14.276,9.45 14.247,9.481 C14.215,9.514 14.188,9.548 14.147,9.58 C14.109,9.611 14.06,9.639 14.015,9.669 C13.966,9.701 13.922,9.734 13.866,9.765 C13.814,9.794 13.753,9.82 13.695,9.847 C13.635,9.876 13.579,9.905 13.514,9.932 C13.446,9.96 13.372,9.984 13.299,10.01 C13.236,10.032 13.176,10.057 13.109,10.077 C13.024,10.103 12.933,10.125 12.844,10.148 C12.785,10.163 12.728,10.181 12.668,10.194 C12.564,10.217 12.459,10.234 12.353,10.251 C12.305,10.259 12.257,10.27 12.208,10.277 C12.09,10.293 11.97,10.302 11.85,10.31 C11.817,10.312 11.783,10.318 11.751,10.319 C11.599,10.326 11.45,10.325 11.307,10.315 C11.078,10.301 10.858,10.293 10.645,10.295 L5.903,5.553 C4.975,4.627 3.358,4.629 2.435,5.553 L1.658,6.329 C0.702,7.285 0.702,8.84 1.658,9.796 L6.486,14.623 C6.48,14.726 6.475,14.83 6.472,14.939 C6.399,18.067 6.324,21.302 5.282,24.041 C5.091,24.543 4.912,25.059 4.74,25.591 C4.594,26.034 4.465,26.474 4.341,26.913 C4.327,26.963 4.311,27.008 4.297,27.058 L4.21,27.37 C4.172,27.512 4.126,27.656 4.09,27.798 L3.838,28.702 L3.893,28.689 C2.102,36.831 4.12,44.107 9.953,50.365 C16.534,57.425 25.121,60.884 36.121,60.884 C37.391,60.884 38.694,60.838 40.029,60.746 C43.657,60.495 45.863,58.163 45.931,54.508 C45.98,51.86 45.803,48.993 45.406,45.991 L45.406,45.99 C45.248,44.794 45.113,43.586 44.978,42.376 C44.607,39.05 44.224,35.683 43.348,32.482 L45.683,33.025 C45.869,33.069 46.057,33.09 46.244,33.09 C46.696,33.09 47.14,32.963 47.534,32.719 C48.09,32.372 48.477,31.83 48.626,31.193 L48.875,30.125 C49.183,28.808 48.362,27.487 47.045,27.18 Z M34.941,12.962 L38.497,12.962 C38.153,13.553 37.941,14.23 37.941,14.962 C37.941,15.694 38.153,16.371 38.497,16.962 L34.941,16.962 C33.838,16.962 32.941,16.065 32.941,14.962 C32.941,13.859 33.838,12.962 34.941,12.962 Z M43.941,14.962 C43.941,16.065 43.044,16.962 41.941,16.962 C40.838,16.962 39.941,16.065 39.941,14.962 C39.941,13.859 40.838,12.962 41.941,12.962 C43.044,12.962 43.941,13.859 43.941,14.962 Z M3.073,8.382 C3.019,8.328 2.99,8.27 2.97,8.216 C2.952,8.167 2.94,8.115 2.94,8.063 L2.94,8.062 C2.94,8.01 2.952,7.958 2.97,7.908 C2.99,7.855 3.019,7.798 3.073,7.744 L3.85,6.967 C3.964,6.853 4.098,6.835 4.168,6.835 C4.237,6.835 4.372,6.853 4.487,6.968 L9.856,12.337 L10.307,12.308 C10.571,12.29 10.862,12.29 11.182,12.312 C11.351,12.322 11.534,12.324 11.727,12.318 C11.842,12.314 11.966,12.302 12.087,12.292 C12.17,12.285 12.249,12.281 12.335,12.271 C12.46,12.256 12.587,12.234 12.715,12.212 C12.806,12.197 12.895,12.184 12.987,12.165 C13.108,12.141 13.227,12.109 13.348,12.078 C13.45,12.052 13.552,12.027 13.653,11.996 C13.765,11.962 13.874,11.923 13.984,11.884 C14.093,11.845 14.2,11.805 14.306,11.76 C14.406,11.718 14.503,11.672 14.6,11.625 C14.709,11.572 14.814,11.515 14.916,11.455 C15.003,11.404 15.087,11.351 15.168,11.295 C15.268,11.227 15.361,11.154 15.452,11.078 C15.525,11.017 15.595,10.957 15.661,10.891 C15.691,10.861 15.728,10.836 15.757,10.805 C17.436,12.169 18.852,14.14 17.993,16.636 C17.02,19.464 11.842,23.939 6.777,25.813 C6.899,25.46 7.014,25.109 7.15,24.751 C8.314,21.691 8.397,18.129 8.471,14.984 C8.476,14.75 8.495,14.543 8.515,14.335 L8.558,13.867 L3.073,8.382 Z M42.992,42.596 C43.128,43.82 43.264,45.041 43.425,46.251 C43.81,49.155 43.981,51.92 43.933,54.469 C43.885,57.052 42.451,58.573 39.894,58.748 C27.629,59.596 18.322,56.405 11.417,49 C5.758,42.93 3.993,36.078 6.063,28.138 C11.788,26.519 18.508,21.291 19.886,17.287 C20.968,14.143 19.684,11.11 16.28,8.699 C16.197,8.21 16.041,7.704 15.882,7.204 C15.725,6.711 15.563,6.2 15.505,5.791 C15.384,4.912 15.394,4.498 15.415,4.314 C15.989,4.003 16.78,3.888 17.006,4.001 C17.435,4.219 17.84,4.73 18.188,5.194 C18.94,6.195 20.341,6.474 21.38,5.822 C22.948,4.84 24.631,4.655 26.247,5.291 L26.857,5.531 L28.839,3.548 C29.618,2.767 30.889,2.769 31.668,3.548 C32.447,4.327 32.447,5.597 31.668,6.376 L29.716,8.328 L30.064,8.981 C30.358,9.534 30.614,10.125 30.823,10.735 C31.041,11.374 31.501,11.882 32.077,12.172 C31.99,12.261 31.921,12.365 31.843,12.462 C31.767,12.556 31.682,12.644 31.614,12.745 C31.534,12.864 31.475,12.995 31.409,13.123 C31.357,13.223 31.295,13.316 31.251,13.42 C31.187,13.573 31.147,13.736 31.102,13.898 C31.077,13.988 31.039,14.072 31.021,14.164 C30.968,14.422 30.94,14.689 30.94,14.962 C30.94,15.259 30.978,15.547 31.04,15.826 C31.06,15.917 31.095,16.001 31.122,16.089 C31.176,16.273 31.235,16.454 31.314,16.625 C31.359,16.722 31.413,16.811 31.465,16.904 C31.55,17.055 31.639,17.201 31.741,17.339 C31.807,17.428 31.878,17.51 31.951,17.593 C32.062,17.719 32.179,17.837 32.305,17.948 C32.352,17.989 32.388,18.041 32.437,18.08 C32.011,18.333 31.708,18.758 31.615,19.272 C31.478,20.019 31.817,20.748 32.478,21.127 C35.164,22.675 37.101,24.511 38.528,26.558 L38.788,26.96 C38.816,27.002 38.841,27.046 38.869,27.088 C39.709,28.394 40.388,29.817 40.942,31.436 L41.122,31.961 L41.127,31.962 C42.177,35.276 42.58,38.891 42.992,42.596 Z M46.929,29.67 L46.68,30.738 C46.643,30.897 46.537,30.982 46.479,31.019 C46.419,31.056 46.297,31.111 46.138,31.076 L42.649,30.263 C42.647,30.258 42.645,30.254 42.644,30.25 C42.249,29.171 41.786,28.116 41.222,27.099 L44.017,24.106 C44.127,23.987 44.261,23.965 44.33,23.962 C44.4,23.967 44.536,23.972 44.654,24.084 L45.456,24.831 C45.638,25.001 45.647,25.288 45.477,25.47 L42.872,28.262 L46.591,29.127 C46.833,29.185 46.985,29.428 46.929,29.67 Z" id="Shape"></path>
            <path d="M38.386,45.13 L35.883,46.799 C34.183,45.902 32.655,44.956 31.299,43.962 L34.94,43.962 C35.493,43.962 35.94,43.515 35.94,42.962 C35.94,42.409 35.493,41.962 34.94,41.962 L28.94,41.962 C28.918,41.962 28.9,41.973 28.878,41.974 C26.28,39.554 24.6,36.892 23.862,34.01 C23.483,32.528 23.395,31.108 23.474,29.798 C23.486,29.79 23.501,29.789 23.513,29.781 C25.27,28.553 27.32,28.557 29.612,29.786 C30.422,30.22 31.243,30.805 32.052,31.507 C31.981,31.646 31.941,31.8 31.941,31.96 L31.941,35.96 C31.941,36.513 32.388,36.96 32.941,36.96 C33.494,36.96 33.941,36.513 33.941,35.96 L33.941,33.4 C34.519,34.058 35.082,34.767 35.616,35.532 C35.81,35.81 36.121,35.96 36.437,35.96 C36.634,35.96 36.833,35.901 37.008,35.78 C37.461,35.464 37.571,34.841 37.256,34.387 C36.559,33.389 35.814,32.469 35.041,31.633 L37.54,29.759 C37.982,29.428 38.072,28.801 37.74,28.36 C37.409,27.917 36.781,27.829 36.341,28.16 L33.601,30.215 C32.6,29.317 31.574,28.568 30.556,28.022 C28.17,26.742 25.874,26.537 23.821,27.368 C24.473,24.478 25.746,22.555 25.767,22.523 C26.077,22.067 25.959,21.445 25.503,21.134 C25.049,20.822 24.427,20.939 24.115,21.394 C23.955,21.629 20.295,27.103 21.819,34.001 C21.663,34.039 21.513,34.101 21.386,34.215 C16.961,38.186 16.8,45.279 20.956,50.197 L20.94,52.953 C20.937,53.506 21.382,53.956 21.934,53.959 C21.936,53.959 21.938,53.959 21.94,53.959 C22.49,53.959 22.937,53.515 22.94,52.965 L22.951,50.959 L24.94,50.959 C25.493,50.959 25.94,50.512 25.94,49.959 C25.94,49.406 25.493,48.959 24.94,48.959 L22.54,48.959 C19.137,44.987 19.096,39.337 22.405,36.021 C23.438,38.849 25.285,41.456 27.94,43.822 L27.94,48.959 C27.94,49.512 28.387,49.959 28.94,49.959 C29.493,49.959 29.94,49.512 29.94,48.959 L29.94,45.446 C31.418,46.545 33.084,47.586 34.94,48.567 L34.94,50.96 C34.94,51.513 35.387,51.96 35.94,51.96 C36.493,51.96 36.94,51.513 36.94,50.96 L36.94,48.495 L39.495,46.792 C39.955,46.485 40.079,45.865 39.772,45.405 C39.467,44.947 38.847,44.824 38.386,45.13 Z" id="Path"></path>
        </g>
    </g>
</svg>