<?xml version="1.0" encoding="UTF-8"?>
<svg width="57px" height="54px" viewBox="0 0 57 54" version="1.1" xmlns="http://www.w3.org/2000/svg" xmlns:xlink="http://www.w3.org/1999/xlink">
    <!-- Generator: Sketch 54.1 (76490) - https://sketchapp.com -->
    <title>kidney</title>
    <desc>Created with Sketch.</desc>
    <g id="Page-1" stroke="none" stroke-width="1" fill="none" fill-rule="evenodd">
        <g id="kidney" fill="#FFFFFF" fill-rule="nonzero">
            <path d="M42.972,0.963 C38.458,0.963 33.448,4.677 33.223,10.676 C33.153,12.541 33.989,14.468 34.873,16.508 C35.187,17.232 35.502,17.965 35.784,18.704 C33.178,17.611 31.222,13.246 31.222,10.259 C31.222,9.706 30.775,9.259 30.222,9.259 C29.669,9.259 29.222,9.706 29.222,10.259 C29.222,14.325 32.13,20.239 36.246,20.897 C36.321,20.986 36.411,21.057 36.513,21.115 C36.533,21.209 36.554,21.303 36.571,21.397 C32.849,21.961 29.738,24.389 28.222,27.704 C26.676,24.325 23.474,21.865 19.656,21.364 C19.685,21.208 19.723,21.053 19.758,20.897 C23.941,20.234 27.222,14.248 27.222,10.259 C27.222,9.706 26.775,9.259 26.222,9.259 C25.669,9.259 25.222,9.706 25.222,10.259 C25.222,13.311 23.017,17.352 20.486,18.582 C20.756,17.884 21.052,17.192 21.349,16.508 C22.234,14.468 23.07,12.541 22.999,10.676 C22.774,4.677 17.764,0.963 13.25,0.963 C5.944,0.963 -3.55271368e-15,10.832 -3.55271368e-15,22.963 C-3.55271368e-15,35.094 5.944,44.963 13.25,44.963 C15.942,44.963 20.955,44.963 22.943,39.294 C23.73,37.051 22.73,34.395 21.572,31.319 C20.646,28.86 19.613,26.09 19.518,23.363 C23.867,23.995 27.221,27.737 27.221,32.259 L27.221,52.259 C27.221,52.812 27.668,53.259 28.221,53.259 C28.774,53.259 29.221,52.812 29.221,52.259 L29.221,32.259 C29.221,27.815 32.461,24.123 36.701,23.398 C36.598,26.114 35.571,28.871 34.649,31.32 C33.491,34.395 32.491,37.051 33.278,39.295 C35.267,44.964 40.279,44.964 42.971,44.964 C50.277,44.964 56.221,35.095 56.221,22.964 C56.221,10.833 50.277,0.963 42.972,0.963 Z M21.057,38.632 C19.655,42.629 16.432,42.963 13.25,42.963 C7.047,42.963 2,33.991 2,22.963 C2,11.935 7.047,2.963 13.25,2.963 C16.853,2.963 20.826,6.092 21.001,10.75 C21.054,12.162 20.306,13.887 19.514,15.712 C19.434,15.897 19.353,16.086 19.272,16.275 C17.866,12.814 14.599,10.259 11.001,10.259 C10.448,10.259 10.001,10.706 10.001,11.259 C10.001,11.812 10.448,12.259 11.001,12.259 C14.598,12.259 17.873,15.801 17.99,19.748 C17.845,20.263 17.728,20.787 17.644,21.319 L12,21.319 C11.447,21.319 11,21.766 11,22.319 C11,22.872 11.447,23.319 12,23.319 L17.503,23.319 C17.474,27.167 14.87,31.259 11,31.259 C10.447,31.259 10,31.706 10,32.259 C10,32.812 10.447,33.259 11,33.259 C14.335,33.259 16.945,31.032 18.352,28.139 C18.752,29.492 19.237,30.796 19.7,32.024 C20.679,34.621 21.603,37.074 21.057,38.632 Z M42.972,42.963 C39.791,42.963 36.569,42.629 35.165,38.632 C34.619,37.074 35.543,34.621 36.521,32.024 C36.984,30.795 37.47,29.49 37.87,28.136 C39.44,31.134 42.444,33.259 45.725,33.259 C46.278,33.259 46.725,32.812 46.725,32.259 C46.725,31.706 46.278,31.259 45.725,31.259 C42.062,31.259 38.725,27.587 38.725,23.555 C38.725,23.512 38.706,23.476 38.701,23.434 C38.703,23.376 38.707,23.318 38.709,23.259 L44.726,23.259 C45.279,23.259 45.726,22.812 45.726,22.259 C45.726,21.706 45.279,21.259 44.726,21.259 L38.571,21.259 C38.458,20.569 38.292,19.891 38.084,19.229 C38.577,15.806 41.419,12.259 45,12.259 C45.553,12.259 46,11.812 46,11.259 C46,10.706 45.553,10.259 45,10.259 C41.335,10.259 38.338,12.935 36.908,16.177 C36.841,16.022 36.774,15.864 36.708,15.712 C35.916,13.887 35.168,12.162 35.221,10.75 C35.396,6.092 39.369,2.963 42.972,2.963 C49.175,2.963 54.222,11.935 54.222,22.963 C54.222,33.991 49.175,42.963 42.972,42.963 Z" id="Shape"></path>
        </g>
    </g>
</svg>