<?xml version="1.0" encoding="UTF-8"?>
<svg width="512px" height="502px" viewBox="0 0 512 502" version="1.1" xmlns="http://www.w3.org/2000/svg" xmlns:xlink="http://www.w3.org/1999/xlink">
    <!-- Generator: Sketch 54.1 (76490) - https://sketchapp.com -->
    <title>lungs</title>
    <desc>Created with Sketch.</desc>
    <g id="Page-1" stroke="none" stroke-width="1" fill="none" fill-rule="evenodd">
        <g id="lungs" fill="#FFFFFF" fill-rule="nonzero">
            <path d="M15.761719,438.570312 C19.753906,437.472656 22.101562,433.34375 21,429.347656 C11.078125,393.308594 13.359375,338.28125 27.972656,261.121094 C37.574219,210.421875 53.042969,166.554688 73.953125,130.734375 C88.980469,104.992188 106.414062,83.941406 125.773438,68.160156 C138.09375,58.113281 155.542969,57.949219 168.207031,67.765625 C177.695312,75.117188 182.570312,86.683594 181.242188,98.699219 C178.515625,123.4375 179.660156,159.5 199.722656,193.476562 C197.003906,196.828125 193.964844,200.441406 190.574219,204.3125 C190.566406,204.320312 190.558594,204.332031 190.550781,204.339844 C183.21875,212.769531 175.433594,220.753906 167.535156,228.652344 C165.601562,230.585938 142.6875,252.613281 142.121094,252.046875 C136.65625,246.515625 130.273438,239.476562 123.976562,231.210938 C124.066406,224.085938 124.761719,202.800781 129.664062,188.636719 C131.019531,184.722656 128.941406,180.449219 125.027344,179.097656 C121.113281,177.742188 116.84375,179.816406 115.488281,183.730469 C112.683594,191.828125 111.082031,201.5625 110.167969,210.285156 C104.953125,200.96875 100.488281,190.78125 97.601562,179.953125 C96.53125,175.953125 92.421875,173.570312 88.421875,174.640625 C84.417969,175.707031 82.039062,179.816406 83.105469,183.820312 C86.910156,198.09375 93.128906,211.285156 100.238281,222.996094 C90.441406,222.035156 78.152344,222.285156 66.917969,226.757812 C63.070312,228.289062 61.191406,232.652344 62.726562,236.5 C64.226562,240.277344 68.695312,242.199219 72.46875,240.695312 C87.339844,234.773438 105.867188,238.683594 112.046875,240.277344 C118.476562,248.722656 124.964844,255.957031 130.609375,261.738281 C127.761719,264.078125 124.988281,266.535156 122.296875,269.113281 C111.414062,279.542969 101.84375,291.90625 93.652344,306.105469 C83.152344,297.320312 69.886719,283.785156 64.78125,268.226562 C63.488281,264.292969 59.25,262.148438 55.3125,263.441406 C51.378906,264.734375 49.234375,268.972656 50.527344,272.90625 C52.675781,279.449219 55.878906,285.605469 59.695312,291.320312 C53.21875,292.238281 45.410156,294.070312 37.753906,297.675781 C34.003906,299.4375 32.394531,303.90625 34.160156,307.652344 C35.894531,311.34375 40.449219,312.984375 44.140625,311.246094 C54.65625,306.300781 65.882812,305.527344 71.035156,305.457031 C76.097656,310.839844 81.457031,315.605469 86.539062,319.679688 C83.273438,326.484375 80.269531,333.628906 77.566406,341.140625 C73.90625,351.304688 71.066406,361.253906 68.859375,370.609375 C66.386719,369.867188 63.789062,369.171875 61.097656,368.558594 C58.964844,364.757812 55.113281,356.835938 54.25,347.839844 C53.855469,343.71875 50.195312,340.691406 46.070312,341.089844 C41.945312,341.484375 38.921875,345.148438 39.316406,349.269531 C39.921875,355.59375 41.59375,361.402344 43.449219,366.207031 C38.296875,366.054688 33.089844,366.414062 28.023438,367.535156 C23.976562,368.433594 21.425781,372.4375 22.320312,376.480469 C23.21875,380.527344 27.222656,383.078125 31.265625,382.183594 C42.636719,379.664062 55.496094,382.125 65.789062,385.355469 C64.035156,394.988281 62.945312,403.609375 62.285156,410.640625 C61.25,421.59375 69.472656,431.90625 80.523438,432.78125 C90.238281,433.550781 99.621094,426.59375 101.652344,417.046875 C102.253906,414.222656 103.035156,410.851562 104.019531,407.046875 C111.996094,414.175781 120.949219,424.144531 124.632812,435.359375 C125.902344,439.234375 130.230469,441.417969 134.097656,440.148438 C138.035156,438.855469 140.175781,434.617188 138.882812,430.679688 C137.265625,425.757812 134.949219,421.097656 132.191406,416.726562 C137.261719,415.875 143.097656,414.347656 148.832031,411.648438 C152.582031,409.886719 154.1875,405.417969 152.425781,401.667969 C150.660156,397.917969 146.191406,396.3125 142.445312,398.074219 C134.277344,401.921875 125.546875,402.652344 121.171875,402.753906 C117.066406,398.433594 112.75,394.597656 108.644531,391.300781 C115.136719,371.515625 126.03125,346.367188 143.746094,323.757812 C146.09375,327.339844 148.777344,331.082031 151.808594,334.871094 C150.769531,343.351562 148.910156,365.789062 155.378906,383.730469 C156.761719,387.566406 161.152344,389.621094 164.980469,388.242188 C168.875,386.835938 170.898438,382.539062 169.492188,378.644531 C166.230469,369.59375 165.585938,358.6875 165.777344,349.902344 C171.277344,354.980469 177.492188,359.84375 184.511719,364.179688 C187.929688,366.289062 192.664062,365.253906 194.835938,361.734375 C197.011719,358.210938 195.917969,353.589844 192.390625,351.414062 C173.941406,340.023438 161.609375,324.382812 153.972656,311.871094 C157.160156,308.5 160.507812,305.21875 164.0625,302.074219 C183.140625,285.195312 198.960938,273.925781 211.671875,264.867188 C212.863281,264.019531 214.023438,263.191406 215.167969,262.371094 C219.105469,281.363281 223.980469,312.9375 223.980469,369.488281 C223.980469,422.691406 216.925781,453.457031 201.113281,469.246094 C183.640625,486.695312 153.746094,486.648438 112.375,486.589844 C81.875,486.589844 49.636719,482.582031 31.816406,454.636719 C29.589844,451.144531 24.953125,450.117188 21.460938,452.34375 C17.96875,454.570312 16.941406,459.210938 19.167969,462.703125 C35.851562,488.863281 63.84375,501.582031 104.742188,501.582031 C109.695312,501.582031 114.648438,501.597656 119.601562,501.597656 C160.847656,501.597656 191.03125,500.511719 211.714844,479.863281 C230.570312,461.03125 238.984375,426.992188 238.984375,369.488281 C238.984375,304.238281 232.59375,271.199219 228.386719,252.554688 C236.535156,246.085938 242.832031,239.828125 247.1875,232.019531 C248.898438,228.957031 252.0625,227.054688 255.445312,227.054688 L256.5,227.054688 C259.886719,227.054688 263.050781,228.957031 264.757812,232.019531 C269.113281,239.828125 275.410156,246.085938 283.558594,252.554688 C279.355469,271.199219 272.964844,304.238281 272.964844,369.488281 C272.964844,426.992188 281.375,461.03125 300.234375,479.863281 C320.914062,500.515625 351.09375,501.597656 392.34375,501.597656 C397.296875,501.597656 402.25,501.582031 407.203125,501.582031 C443.6875,501.582031 469.722656,491.566406 486.789062,470.960938 C501.515625,453.1875 509.613281,427.65625 511.542969,392.90625 C513.480469,358.15625 509.28125,314.132812 498.710938,258.328125 C488.601562,204.941406 472.109375,158.757812 449.699219,121.058594 C447.582031,117.496094 442.976562,116.328125 439.417969,118.445312 C435.855469,120.5625 434.6875,125.164062 436.800781,128.726562 C458.320312,164.917969 474.1875,209.460938 483.972656,261.117188 C503.925781,366.472656 501.148438,430.113281 475.238281,461.394531 C456.628906,483.855469 426.742188,486.546875 399.574219,486.589844 C358.203125,486.648438 328.304688,486.695312 310.832031,469.246094 C295.019531,453.457031 287.96875,422.691406 287.96875,369.488281 C287.96875,312.9375 292.84375,281.363281 296.78125,262.371094 C297.925781,263.191406 299.085938,264.019531 300.277344,264.867188 C316.683594,276.558594 332.785156,288.714844 347.882812,302.074219 C351.4375,305.21875 354.789062,308.5 357.972656,311.871094 C350.339844,324.378906 338.007812,340.023438 319.554688,351.414062 C316.03125,353.589844 314.9375,358.210938 317.113281,361.734375 C319.257812,365.210938 323.960938,366.324219 327.433594,364.179688 C334.460938,359.84375 340.675781,354.972656 346.183594,349.890625 C346.375,358.660156 345.730469,369.558594 342.457031,378.640625 C340.730469,383.429688 344.429688,388.6875 349.511719,388.6875 C352.585938,388.6875 355.464844,386.785156 356.570312,383.730469 C363.035156,365.789062 361.179688,343.351562 360.140625,334.871094 C363.171875,331.078125 365.855469,327.335938 368.199219,323.757812 C385.917969,346.367188 396.8125,371.515625 403.304688,391.300781 C399.199219,394.597656 394.882812,398.433594 390.777344,402.753906 C386.402344,402.652344 377.675781,401.921875 369.503906,398.074219 C365.753906,396.3125 361.289062,397.921875 359.523438,401.667969 C357.761719,405.417969 359.367188,409.886719 363.117188,411.648438 C368.851562,414.347656 374.691406,415.875 379.757812,416.726562 C377,421.097656 374.683594,425.757812 373.066406,430.679688 C371.773438,434.617188 373.914062,438.855469 377.851562,440.148438 C381.660156,441.398438 386.027344,439.289062 387.316406,435.359375 C391,424.144531 399.953125,414.175781 407.929688,407.046875 C408.914062,410.851562 409.695312,414.222656 410.296875,417.046875 C410.296875,417.058594 410.300781,417.066406 410.304688,417.078125 C412.335938,426.566406 421.75,433.542969 431.425781,432.78125 C443.003906,431.867188 450.667969,420.878906 449.578125,409.789062 C448.910156,402.914062 447.84375,394.609375 446.160156,385.355469 C456.449219,382.125 469.3125,379.664062 480.683594,382.183594 C484.726562,383.078125 488.730469,380.523438 489.625,376.480469 C490.523438,372.4375 487.96875,368.433594 483.925781,367.535156 C478.859375,366.414062 473.652344,366.054688 468.5,366.207031 C470.355469,361.402344 472.027344,355.59375 472.632812,349.269531 C473.027344,345.148438 470.003906,341.484375 465.878906,341.089844 C461.75,340.691406 458.09375,343.71875 457.699219,347.839844 C456.835938,356.855469 452.992188,364.753906 450.851562,368.558594 C448.160156,369.171875 445.5625,369.867188 443.089844,370.605469 C440.882812,361.253906 438.042969,351.300781 434.382812,341.140625 C433.699219,339.242188 425.148438,319.886719 425.410156,319.679688 C430.496094,315.601562 435.855469,310.832031 440.921875,305.449219 C446.042969,305.5 457.199219,306.257812 467.808594,311.246094 C471.433594,312.953125 476.027344,311.398438 477.789062,307.652344 C479.550781,303.90625 477.945312,299.4375 474.195312,297.671875 C466.539062,294.070312 458.730469,292.238281 452.253906,291.320312 C456.070312,285.605469 459.273438,279.449219 461.417969,272.90625 C462.710938,268.972656 460.570312,264.734375 456.632812,263.441406 C452.699219,262.148438 448.460938,264.289062 447.167969,268.226562 C442.058594,283.785156 428.796875,297.320312 418.292969,306.109375 C408.078125,288.394531 395.714844,273.546875 381.335938,261.738281 C386.984375,255.957031 393.476562,248.71875 399.90625,240.269531 C406.078125,238.660156 424.519531,234.738281 439.480469,240.695312 C443.277344,242.207031 447.710938,240.300781 449.222656,236.5 C450.753906,232.652344 448.878906,228.289062 445.027344,226.757812 C433.792969,222.285156 421.507812,222.035156 411.710938,222.996094 C418.820312,211.289062 425.035156,198.09375 428.84375,183.820312 C429.910156,179.820312 427.53125,175.707031 423.527344,174.640625 C419.527344,173.574219 415.414062,175.953125 414.347656,179.957031 C411.460938,190.78125 406.996094,200.972656 401.78125,210.285156 C400.867188,201.5625 399.265625,191.828125 396.460938,183.730469 C395.105469,179.816406 390.835938,177.742188 386.917969,179.097656 C383.003906,180.453125 380.929688,184.722656 382.285156,188.640625 C387.1875,202.804688 387.878906,224.085938 387.972656,231.210938 C381.675781,239.476562 375.292969,246.515625 369.824219,252.050781 C369.65625,251.902344 369.480469,251.753906 369.3125,251.609375 C354.816406,239.078125 341.710938,225.421875 328.191406,211.898438 C321.953125,205.121094 316.660156,198.9375 312.226562,193.480469 C332.289062,159.496094 333.433594,123.4375 330.703125,98.699219 C329.378906,86.683594 334.253906,75.117188 343.742188,67.765625 C356.40625,57.949219 373.851562,58.113281 386.175781,68.160156 C398.625,78.308594 410.453125,90.859375 421.335938,105.464844 C423.808594,108.785156 428.507812,109.472656 431.828125,106.996094 C435.152344,104.523438 435.839844,99.824219 433.363281,96.5 C421.746094,80.910156 409.058594,67.460938 395.65625,56.53125 C377.890625,42.050781 352.765625,41.792969 334.550781,55.90625 C320.902344,66.484375 313.890625,83.097656 315.792969,100.34375 C318.125,121.480469 317.375,151.664062 302.25,180.550781 C301.679688,179.769531 301.128906,179.007812 300.621094,178.292969 C296.425781,172.394531 294.207031,165.472656 294.207031,158.273438 L294.207031,20.625 C294.207031,9.253906 284.953125,2.55795385e-13 273.582031,2.55795385e-13 L238.371094,2.55795385e-13 C227,2.55795385e-13 217.746094,9.253906 217.746094,20.625 L217.746094,158.273438 C217.746094,165.472656 215.527344,172.394531 211.332031,178.292969 C210.824219,179.007812 210.273438,179.769531 209.703125,180.550781 C194.582031,151.664062 193.828125,121.480469 196.160156,100.34375 C198.0625,83.097656 191.050781,66.484375 177.402344,55.90625 C159.1875,41.792969 134.0625,42.050781 116.300781,56.53125 C95.542969,73.453125 76.941406,95.871094 61.003906,123.171875 C39.226562,160.472656 23.15625,205.945312 13.238281,258.328125 C-1.816406,337.789062 -4.003906,395.035156 6.539062,433.332031 C7.636719,437.324219 11.765625,439.671875 15.761719,438.570312 L15.761719,438.570312 Z M223.550781,186.988281 C229.566406,178.539062 232.742188,168.609375 232.742188,158.273438 L232.742188,20.625 C232.742188,17.523438 235.265625,15.003906 238.367188,15.003906 L273.578125,15.003906 C276.679688,15.003906 279.203125,17.523438 279.203125,20.625 L279.203125,158.273438 C279.203125,168.609375 282.378906,178.539062 288.390625,186.988281 C301.078125,204.820312 315.753906,221.238281 331.214844,236.695312 C346.855469,252.335938 364.675781,265.589844 380.449219,281.097656 C421.875,321.835938 432.175781,385.195312 434.710938,411.902344 C434.714844,411.949219 434.71875,412 434.722656,412.046875 C434.980469,414.769531 433.058594,417.597656 430.230469,417.824219 C430.179688,417.828125 430.128906,417.820312 430.078125,417.824219 C427.660156,417.941406 425.46875,416.296875 424.964844,413.925781 C423.371094,406.429688 421.664062,398.699219 419.082031,391.472656 C408.5,362.253906 396.777344,334.699219 376.75,310.472656 C357.699219,287.429688 333.152344,269.875 308.976562,252.648438 C297.996094,244.820312 284.617188,236.832031 277.855469,224.714844 C268.589844,208.097656 243.367188,208.070312 234.085938,224.710938 C227.3125,236.855469 213.988281,244.789062 202.964844,252.648438 C189.96875,261.90625 173.796875,273.433594 154.125,290.835938 C126.554688,315.226562 107.695312,348.214844 95.722656,382.707031 C92.179688,392.914062 89.230469,403.355469 86.980469,413.925781 C86.464844,416.347656 84.203125,418.023438 81.710938,417.824219 C78.875,417.597656 76.960938,414.761719 77.21875,412.046875 C78.207031,401.5625 80.402344,385.355469 85.226562,367.070312 C91.179688,344.511719 100.085938,322.480469 113.238281,303.121094 C120.644531,292.21875 129.539062,282.011719 140.21875,273.253906 C154.238281,261.761719 167.746094,249.632812 180.585938,236.835938 C196.113281,221.363281 210.832031,204.863281 223.550781,186.988281 L223.550781,186.988281 Z" id="Shape"></path>
        </g>
    </g>
</svg>