<svg width="512" height="512" xmlns="http://www.w3.org/2000/svg" xmlns:xlink="http://www.w3.org/1999/xlink"><defs><path d="M255.998 511.996c141.384 0 255.998-114.614 255.998-255.998 0-26.7-4.088-52.446-11.671-76.645C467.75 75.412 370.68 0 255.998 0 114.614 0 0 114.614 0 255.998s114.614 255.998 255.998 255.998z" id="a"/><path d="M24.095 11.896C85.798 3.966 129.612 0 155.537 0c25.999 0 70.786 3.988 134.361 11.964 13.506 1.695 23.64 13.178 23.64 26.79V119c0 14.912-12.09 27-27 27h-259c-14.913 0-27-12.088-27-27V38.676c0-13.58 10.087-25.048 23.557-26.78z" id="c"/></defs><g fill="none" fill-rule="evenodd"><mask id="b" fill="#fff"><use xlink:href="#a"/></mask><use fill="#D67040" fill-rule="nonzero" xlink:href="#a"/><g mask="url(#b)"><g transform="translate(92 71)"><g transform="translate(7.415 296)"><mask id="d" fill="#fff"><use xlink:href="#c"/></mask><use fill="#3D435D" xlink:href="#c"/><path d="M-46.29 107.513c-.499 4.337-.107 8.125 1.168 11.368 1.31 3.329 3.802 7.101 7.48 11.309l231.468-8.514-13.745-9.225-226.372-4.938z" stroke="#979797" fill="#D9D5C9" mask="url(#d)" transform="rotate(55 74.192 118.85)"/><path d="M-72.265 118.732c-.498 4.337-.106 8.125 1.169 11.368 1.31 3.329 3.802 7.101 7.48 11.309l231.468-8.514-13.745-9.225-226.372-4.938z" stroke="#979797" fill="#D9D5C9" mask="url(#d)" transform="rotate(55 48.218 130.07)"/></g><path d="M31.275 305.54c-12.944 1.25-22.823 12.127-22.823 25.131V341c0 6.904 5.597 12.5 12.5 12.5h287c6.904 0 12.5-5.596 12.5-12.5v-10.329c0-13-9.88-23.872-22.823-25.111-63.114-6.04-107.676-9.06-133.677-9.06-25.973 0-70.202 3.013-132.677 9.04z" stroke="#979797" fill="#D9D5C9"/><path d="M320.452 417.585v-32.926L117.588 441.5l75.272.009 127.592-23.924zM320.452 384.587l-.011-24.763-311.92 57.58c1.337 8.458 3.608 14.204 6.777 17.235 3.23 3.088 7.44 5.04 12.645 5.854l292.509-55.906zM27.943 440.493l.085.013-.17.003.085-.016z" stroke="#979797" fill="#F7F4EA"/><rect fill="#3D435D" x="136.952" y="258" width="55" height="70.262" rx="27.5"/><g transform="translate(57.952)"><rect fill="#3D435D" x="13" y="36.893" width="191" height="244" rx="95.5"/><path d="M161 50.893c6.075 3.664 13.075 10.664 21 21l-162 27c10.018-23.479 19.352-38.479 28-45 7.559-5.7 21.978-11.408 33-14 19.195-4.79 53.645-4.897 80 11z" stroke="#979797" stroke-width="2" fill="#F7F4EA"/><path d="M56.288 269.22c-6.356-3.278-13.452-10.387-21.288-21.327l163.73-36.678c-9.356 24.346-18.334 40.101-26.934 47.265-7.516 6.26-22.053 12.998-33.232 16.363-19.457 6.14-54.703 8.6-82.276-5.622z" stroke="#979797" stroke-width="2" fill="#D9D5C9"/><path d="M29.534 77.9c-4.903 7.444-8.112 12.918-9.616 16.39-1.407 3.246-2.348 7.113-2.818 11.603h182.592c-1.652-6.01-3.188-10.54-4.599-13.58-1.468-3.16-4.007-7.307-7.615-12.427L29.534 77.9z" stroke="#979797" stroke-width="2" fill="#F7F4EA"/><path d="M13.5 172.943l58.984-40.513-11.194-16.596-47.79 30.333v26.776z" stroke="#979797" fill="#D9D5C9"/><path d="M16.698 101.893c-1.8 5.006-2.698 10.004-2.698 15 0 5.013-.292 10.027-.877 15.04L203 138.856v-17.963c0-6.331-.916-12.664-2.748-19H16.698zM201.894 200.945c1.733-5.04 2.555-10.058 2.468-15.056-.088-5.012.12-10.03.623-15.053l-191.967-3.573.313 17.96c.112 6.383.94 13.598 2.488 21.643l186.075-5.921z" stroke="#979797" stroke-width="2" fill="#F7F4EA"/><path d="M13.912 205.571c.741 3.883 2.322 8.523 4.747 13.911 2.62 5.826 5.561 11.968 8.822 18.426l158.95 3.975c7.034-6.403 10.51-12.732 10.51-18.99 0-1.03.188-2.058.553-3.284.15-.504.258-.825.6-1.822.507-1.473.729-2.21.89-3.077.477-2.578 1.307-6.51 2.49-11.8l-187.562 2.661z" stroke="#979797" stroke-width="2" fill="#F7F4EA"/><g transform="translate(76 140.893)" fill="#EAFF00"><circle cx="8.5" cy="13.5" r="8.5"/><circle cx="60.5" cy="11.5" r="11.5"/></g></g><path d="M137.396 282.555c-.63 5.955-.944 10.44-.944 13.445 0 2.945.302 5.788.906 8.529l53.276 3.946c1.099-2.597 1.705-5.428 1.819-8.494.117-3.163-.2-8.973-.952-17.415-10.934 1.488-19.448 2.232-25.549 2.232-6.115 0-15.631-.748-28.556-2.243z" stroke="#979797" fill="#D9D5C9"/><path d="M136.314 295.65c-.52 2.41-.48 4.818.123 7.229.661 2.643 1.654 5.622 2.985 8.949 1.409 3.847 2.719 6.468 3.909 7.845 2.647 3.066 6.55 5.334 10.79 6.856.348.125.677.261 1.116.456l.329.147c1.953.877 3.103 1.211 5.42 1.37.838.056 4.977.047 5.941-.001 2.536-.126 6.137-1.107 10.787-2.945 5.67-3.947 8.945-6.897 9.782-8.76a262.153 262.153 0 0 0 1.506-3.4c-10.535-2.986-18.64-5.568-24.32-7.748-5.678-2.18-15.136-5.513-28.368-9.998z" stroke="#979797" fill="#D9D5C9"/><path d="M8.46 338.713l.262 21.988 233.354 80.35 53.926.426L8.461 338.713z" stroke="#979797" fill="#F7F4EA"/><path d="M79.155 339.592l-15.078 22.207 234.858 80.666c6.862-2.882 11.75-5.825 14.659-8.814 2.854-2.932 5.12-8.04 6.77-15.317l-241.21-78.742z" stroke="#979797" fill="#D9D5C9"/><path d="M320.436 360.878l.016-29.248-312 72.767v14.002l311.984-57.521z" stroke="#979797" fill="#F7F4EA"/><path d="M9.492 324.95L71.253 441.5H92.13L22.749 307.694c-3.962 2.297-6.763 4.506-8.402 6.613-1.681 2.161-3.304 5.712-4.855 10.643z" stroke="#979797" fill="#F7F4EA"/><path d="M8.452 338.453V360.5h312v-28.989l-312 6.942z" stroke="#979797" fill="#F7F4EA"/><path d="M317.238 317.866c-3.997-5.49-7.475-9.211-10.418-11.161-2.982-1.976-7.187-3.637-12.613-4.974L109.482 441.47l16.555-.328 191.2-123.276z" stroke="#979797" fill="#F7F4EA"/></g><path d="M217.017 268.306H295c-.721 20.765-17.902 37.378-38.992 37.378-21.089 0-38.27-16.613-38.991-37.378z" stroke="#262A3A" stroke-width="6" fill="#3D435D"/><path d="M230.126 270.684h7.748c.082.448.126.917.126 1.4 0 3.093-1.79 5.6-4 5.6s-4-2.507-4-5.6c0-.483.044-.952.126-1.4zM241.126 270.684h7.748c.082.448.126.917.126 1.4 0 3.093-1.79 5.6-4 5.6s-4-2.507-4-5.6c0-.483.044-.952.126-1.4zM277.126 267.684h7.748c.082.448.126.917.126 1.4 0 3.093-1.79 5.6-4 5.6s-4-2.507-4-5.6c0-.483.044-.952.126-1.4z" fill="#9F9F9F"/><path d="M266.101 306.126A27.98 27.98 0 0 1 256 308c-4.07 0-7.938-.867-11.428-2.426A12.443 12.443 0 0 1 243 299.5c0-6.904 5.596-12.5 12.5-12.5s12.5 5.596 12.5 12.5c0 2.434-.696 4.705-1.899 6.626z" fill="#DF6C54"/><path d="M217.017 268.306H295c-.721 20.765-17.902 37.378-38.992 37.378-21.089 0-38.27-16.613-38.991-37.378z" stroke="#2E3347" stroke-width="6"/></g></g></svg>