<?xml version="1.0" encoding="UTF-8"?>
<svg width="444px" height="512px" viewBox="0 0 444 512" version="1.1" xmlns="http://www.w3.org/2000/svg" xmlns:xlink="http://www.w3.org/1999/xlink">
    <!-- Generator: Sketch 54.1 (76490) - https://sketchapp.com -->
    <title>pills</title>
    <desc>Created with Sketch.</desc>
    <g id="Page-1" stroke="none" stroke-width="1" fill="none" fill-rule="evenodd">
        <g id="pills" fill-rule="nonzero">
            <circle id="Oval" fill="#7FDBD5" cx="224.24" cy="427.22" r="15.785"></circle>
            <g id="Group" transform="translate(228.000000, 343.000000)" fill="#38648C">
                <circle id="Oval" cx="62.36" cy="102.33" r="15.02"></circle>
                <circle id="Oval" cx="15.79" cy="15.39" r="15.02"></circle>
            </g>
            <circle id="Oval" fill="#7FDBD5" cx="301.73" cy="386.41" r="18.93"></circle>
            <circle id="Oval" fill="#D67040" cx="243.79" cy="491.72" r="20.279"></circle>
            <path d="M160.259,84.051 L91.557,145.231 L178.593,242.967 L247.295,181.787 C274.284,157.753 276.679,116.39 252.645,89.401 L252.645,89.401 C228.611,62.412 187.248,60.017 160.259,84.051 Z" id="Path" fill="#373137"></path>
            <path d="M22.856,206.412 L91.558,145.232 L178.594,242.968 L109.892,304.148 C82.903,328.182 41.541,325.787 17.506,298.798 L17.506,298.798 C-6.529,271.809 -4.133,230.446 22.856,206.412 Z" id="Path" fill="#E3E3DE"></path>
            <path d="M252.645,89.401 C239.028,74.11 219.849,66.722 200.873,67.554 C195.505,85.048 197.447,104.68 207.898,121.422 L229.564,156.128 C233.298,162.11 232.072,169.941 226.66,174.463 C186.122,208.336 134.275,244.89 107.158,256 C65.688,272.99 29.456,230.004 35.305,195.326 L23.584,205.763 C-3.273,229.68 -6.635,270.98 16.932,298.145 C40.877,325.747 82.686,328.374 109.891,304.148 L247.295,181.787 C274.284,157.753 276.679,116.39 252.645,89.401 L252.645,89.401 Z" id="Path" fill="#000000" opacity="0.1"></path>
            <path d="M224.677,100.097 L273.394,178.133 L384.409,108.828 L335.692,30.792 C316.554,0.136 276.188,-9.201 245.532,9.937 L245.532,9.937 C214.877,29.075 205.539,69.441 224.677,100.097 Z" id="Path" fill="#7397C3"></path>
            <path d="M322.111,256.17 L273.394,178.134 L384.409,108.829 L433.126,186.865 C452.264,217.521 442.927,257.887 412.271,277.025 L412.271,277.025 C381.615,296.163 341.249,286.826 322.111,256.17 Z" id="Path" fill="#D1EFF2"></path>
            <path d="M412.271,277.025 C415.217,275.186 417.961,273.147 420.507,270.944 C342.715,259.512 241.303,73.81 245.873,9.736 C245.76,9.805 245.645,9.867 245.532,9.937 L245.532,9.937 C214.876,29.075 205.539,69.441 224.677,100.097 L322.11,256.17 C341.249,286.826 381.615,296.163 412.271,277.025 L412.271,277.025 Z" id="Path" fill="#000000" opacity="0.1"></path>
            <path d="M134.093,356.227 L213.764,389.228 C216.702,390.445 220.071,389.05 221.288,386.111 L266.963,275.842 C268.18,272.903 266.785,269.535 263.846,268.318 L184.175,235.317 C150.787,221.487 112.509,237.342 98.679,270.731 C84.849,304.12 100.705,342.397 134.093,356.227 Z" id="Path" fill="#D67040"></path>
            <path d="M221.289,386.112 L232.538,358.955 C138.439,341.046 106.844,285.435 114.208,248.201 C107.693,254.346 102.329,261.921 98.68,270.731 L98.68,270.731 C84.85,304.119 100.705,342.397 134.094,356.227 L213.765,389.228 C216.703,390.446 220.071,389.05 221.289,386.112 Z" id="Path" fill="#000000" opacity="0.1"></path>
            <path d="M400.83,356.227 L321.159,389.228 C318.221,390.445 314.852,389.05 313.635,386.111 L267.96,275.842 C266.743,272.903 268.138,269.535 271.077,268.318 L350.748,235.317 C384.136,221.487 422.414,237.342 436.244,270.731 L436.244,270.731 C450.073,304.12 434.218,342.397 400.83,356.227 Z" id="Path" fill="#7397C3"></path>
        </g>
    </g>
</svg>