<?xml version="1.0" encoding="UTF-8"?>
<svg width="482px" height="481px" viewBox="0 0 482 481" version="1.1" xmlns="http://www.w3.org/2000/svg" xmlns:xlink="http://www.w3.org/1999/xlink">
    <!-- Generator: Sketch 54.1 (76490) - https://sketchapp.com -->
    <title>research</title>
    <desc>Created with Sketch.</desc>
    <g id="Page-1" stroke="none" stroke-width="1" fill="none" fill-rule="evenodd">
        <g id="research" transform="translate(1.000000, 1.000000)" fill-rule="nonzero">
            <path d="M412.398438,468.398438 L288,344 L344,288 L468.398438,412.398438 C475.824219,419.824219 480,429.894531 480,440.398438 C480,462.273438 462.273438,480 440.398438,480 C429.894531,480 419.832031,475.832031 412.398438,468.398438 Z" id="Path" fill="#5789D6"></path>
            <path d="M440.398438,480 C447.199219,480 453.511719,478.128906 459.105469,475.105469 C462.128906,469.511719 464,463.207031 464,456.398438 C464,445.894531 459.832031,435.824219 452.398438,428.398438 L328,304 L288,344 L412.398438,468.398438 C419.832031,475.832031 429.894531,480 440.398438,480 L440.398438,480 Z" id="Path" fill="#699CE6"></path>
            <polyline id="Path" fill="#BC8F6F" points="280 304 304 328 328 304 304 280"></polyline>
            <path d="M472,32 C472,45.253906 461.253906,56 448,56 C434.746094,56 424,45.253906 424,32 C424,18.746094 434.746094,8 448,8 C461.253906,8 472,18.746094 472,32 Z" id="Path" fill="#373137"></path>
            <path d="M344,64 C344,77.253906 333.253906,88 320,88 C306.746094,88 296,77.253906 296,64 C296,50.746094 306.746094,40 320,40 C333.253906,40 344,50.746094 344,64 Z" id="Path" stroke="#FFFFFF" fill="#D67040"></path>
            <path d="M160,32 C160,45.253906 149.253906,56 136,56 C122.746094,56 112,45.253906 112,32 C112,18.746094 122.746094,8 136,8 C149.253906,8 160,18.746094 160,32 Z" id="Path" fill="#91ADCF"></path>
            <path d="M56,176 C56,189.253906 45.253906,200 32,200 C18.746094,200 8,189.253906 8,176 C8,162.746094 18.746094,152 32,152 C45.253906,152 56,162.746094 56,176 Z" id="Path" fill="#D67040"></path>
            <path d="M56,32 C56,45.253906 45.253906,56 32,56 C18.746094,56 8,45.253906 8,32 C8,18.746094 18.746094,8 32,8 C45.253906,8 56,18.746094 56,32 Z" id="Path" stroke="#FFFFFF" fill="#D67040"></path>
            <polygon id="Path" fill="#5789D6" points="432 432 448 432 448 448 432 448"></polygon>
            <g id="Group" fill="#FFFFFF">
                <path d="M448,64 C430.351562,64 416,49.648438 416,32 C416,14.351562 430.351562,0 448,0 C465.648438,0 480,14.351562 480,32 C480,49.648438 465.648438,64 448,64 Z M448,16 C439.175781,16 432,23.175781 432,32 C432,40.824219 439.175781,48 448,48 C456.824219,48 464,40.824219 464,32 C464,23.175781 456.824219,16 448,16 Z" id="Shape" stroke="#FFFFFF"></path>
                <path d="M320,96 C302.351562,96 288,81.648438 288,64 C288,46.351562 302.351562,32 320,32 C337.648438,32 352,46.351562 352,64 C352,81.648438 337.648438,96 320,96 Z M320,48 C311.175781,48 304,55.175781 304,64 C304,72.824219 311.175781,80 320,80 C328.824219,80 336,72.824219 336,64 C336,55.175781 328.824219,48 320,48 Z" id="Shape"></path>
                <path d="M32,208 C14.351562,208 0,193.648438 0,176 C0,158.351562 14.351562,144 32,144 C49.648438,144 64,158.351562 64,176 C64,193.648438 49.648438,208 32,208 Z M32,160 C23.175781,160 16,167.175781 16,176 C16,184.824219 23.175781,192 32,192 C40.824219,192 48,184.824219 48,176 C48,167.175781 40.824219,160 32,160 Z" id="Shape" stroke="#FFFFFF"></path>
                <path d="M32,64 C14.351562,64 0,49.648438 0,32 C0,14.351562 14.351562,0 32,0 C49.648438,0 64,14.351562 64,32 C64,49.648438 49.648438,64 32,64 Z M32,16 C23.175781,16 16,23.175781 16,32 C16,40.824219 23.175781,48 32,48 C40.824219,48 48,40.824219 48,32 C48,23.175781 40.824219,16 32,16 Z" id="Shape"></path>
                <path d="M136,64 C118.351562,64 104,49.648438 104,32 C104,14.351562 118.351562,0 136,0 C153.648438,0 168,14.351562 168,32 C168,49.648438 153.648438,64 136,64 Z M136,16 C127.175781,16 120,23.175781 120,32 C120,40.824219 127.175781,48 136,48 C144.824219,48 152,40.824219 152,32 C152,23.175781 144.824219,16 136,16 Z" id="Shape" stroke="#FFFFFF"></path>
                <polygon id="Path" points="24 56 40 56 40 152 24 152"></polygon>
                <polygon id="Path" points="33.664062 155.136719 113.648438 51.128906 126.324219 60.878906 46.339844 164.886719"></polygon>
                <polygon id="Path" points="400.601562 133.046875 432.578125 53.039062 447.433594 58.976562 415.460938 138.984375"></polygon>
                <polygon id="Path" points="329.988281 85.273438 342.023438 74.742188 398.023438 138.742188 385.988281 149.273438"></polygon>
                <polygon id="Path" points="159.050781 47.933594 160.921875 32.042969 296.925781 48.035156 295.058594 63.929688"></polygon>
            </g>
            <path d="M328,208 C328,274.273438 274.273438,328 208,328 C141.726562,328 88,274.273438 88,208 C88,141.726562 141.726562,88 208,88 C274.273438,88 328,141.726562 328,208 Z" id="Path" fill="#5B6673"></path>
            <path d="M296,208 C296,256.601562 256.601562,296 208,296 C159.398438,296 120,256.601562 120,208 C120,159.398438 159.398438,120 208,120 C256.601562,120 296,159.398438 296,208 Z" id="Path" fill="#94CCE7"></path>
            <path d="M296,208 C296,256.601562 256.601562,296 208,296 C159.398438,296 120,256.601562 120,208 C120,159.398438 159.398438,120 208,120 C256.601562,120 296,159.398438 296,208 Z" id="Path" fill="#94CCE7"></path>
            <path d="M232,240 C232,253.253906 221.253906,264 208,264 C194.746094,264 184,253.253906 184,240 C184,226.746094 194.746094,216 208,216 C221.253906,216 232,226.746094 232,240 Z" id="Path" fill="#91ADCF"></path>
            <path d="M208,272 C190.351562,272 176,257.648438 176,240 C176,222.351562 190.351562,208 208,208 C225.648438,208 240,222.351562 240,240 C240,257.648438 225.648438,272 208,272 Z M208,224 C199.175781,224 192,231.175781 192,240 C192,248.824219 199.175781,256 208,256 C216.824219,256 224,248.824219 224,240 C224,231.175781 216.824219,224 208,224 Z" id="Shape" stroke="#FFFFFF" fill="#FFFFFF"></path>
            <polygon id="Path" fill="#FFFFFF" points="228.695312 232.679688 388.710938 160.726562 395.273438 175.320312 235.257812 247.273438"></polygon>
            <polygon id="Path" fill="#FFFFFF" points="52.796875 191.320312 59.210938 176.660156 187.214844 232.660156 180.804688 247.316406"></polygon>
            <path d="M424,160 C424,173.253906 413.253906,184 400,184 C386.746094,184 376,173.253906 376,160 C376,146.746094 386.746094,136 400,136 C413.253906,136 424,146.746094 424,160 Z" id="Path" fill="#91ADCF"></path>
            <path d="M400,192 C382.351562,192 368,177.648438 368,160 C368,142.351562 382.351562,128 400,128 C417.648438,128 432,142.351562 432,160 C432,177.648438 417.648438,192 400,192 Z M400,144 C391.175781,144 384,151.175781 384,160 C384,168.824219 391.175781,176 400,176 C408.824219,176 416,168.824219 416,160 C416,151.175781 408.824219,144 400,144 Z" id="Shape" stroke="#FFFFFF" fill="#FFFFFF"></path>
        </g>
    </g>
</svg>